# xmcd
#
# Track frame offsets:
#	150
#	19900
#	38315
#	52575
#	68718
#	87940
#	105470
#	125143
#	142245
#	162038
#	181358
#	201273
#	218445
#	231540
#	252378
#	271428
#	289515
#
# Disc length: 4113 seconds
#
# Revision: 0
# Processed by: cddbd v1.5.2PL0 Copyright (c) Steve Scherf et al.
# Submitted via: dBpowerAMP V4.0
#
DISCID=f0100f11
DTITLE=Various Artist - Top Hits USA RA25
DYEAR=1900
DGENRE=
TTITLE0=Richard Marx - The Way She Loves You
TTITLE1=Aretha Franklin - Willing to Firgive
TTITLE2=Lisa Loeb and Nine Stories - Stay (I Missed You)
TTITLE3=John Mellencamp with Me'Shell Ndege'Ocello - Wild Night
TTITLE4=Stevie Nicks - Maybe Love Will Change Your Mind (Radio Remix)
TTITLE5=Prince - The Most Beautiful Girl in The World
TTITLE6=Kenny Loggins, Amy Grant and Gary Chapman - Return to Pooh Corner
TTITLE7=Ace Of Base - Don't Turn Around (Single)
TTITLE8=Michael Bolton (AC Version) - Ain't Got Nothing if You Ain't Got Love
TTITLE9=Atlantic Star - I'll Remember You
TTITLE10=Vince Gill - Whenever You Come Arond
TTITLE11=Dave Koz - Faces of The Heart
TTITLE12=Huey Lewis and The News - But It's Alright
TTITLE13=Counting Crows - Mr. Jones
TTITLE14=Seal - Prayer For The Dying (Edit)
TTITLE15=Bonnie Raitt - You (Edit)
TTITLE16=Peabo Bryson - Why Goodbye (Radio Edit)
EXTD=
EXTT0=
EXTT1=
EXTT2=
EXTT3=
EXTT4=
EXTT5=
EXTT6=
EXTT7=
EXTT8=
EXTT9=
EXTT10=
EXTT11=
EXTT12=
EXTT13=
EXTT14=
EXTT15=
EXTT16=
PLAYORDER=
